<mxfile host="65bd71144e">
    <diagram id="qZGXsCtWok9NLsqaod5S" name="Page-1">
        <mxGraphModel dx="2638" dy="2237" grid="1" gridSize="10" guides="1" tooltips="1" connect="1" arrows="1" fold="1" page="1" pageScale="1" pageWidth="850" pageHeight="1100" math="0" shadow="0">
            <root>
                <mxCell id="0"/>
                <mxCell id="1" parent="0"/>
                <mxCell id="6" value="0" style="edgeStyle=none;html=1;labelBackgroundColor=none;" parent="1" source="2" target="3" edge="1">
                    <mxGeometry relative="1" as="geometry"/>
                </mxCell>
                <mxCell id="2" value="User" style="sketch=0;aspect=fixed;pointerEvents=1;shadow=0;dashed=0;html=1;strokeColor=none;labelPosition=center;verticalLabelPosition=bottom;verticalAlign=top;align=center;fillColor=#FFFFFF;shape=mxgraph.azure.user;labelBackgroundColor=none;" parent="1" vertex="1">
                    <mxGeometry x="805" y="-33" width="75.2" height="80" as="geometry"/>
                </mxCell>
                <mxCell id="10" value="" style="rounded=0;whiteSpace=wrap;html=1;align=left;labelBackgroundColor=none;fillColor=#f5f5f5;fontColor=#333333;strokeColor=#666666;" parent="1" vertex="1">
                    <mxGeometry x="245" y="-384" width="500" height="170" as="geometry"/>
                </mxCell>
                <mxCell id="11" value="Order Depth Function" style="sketch=0;points=[[0,0,0],[0.25,0,0],[0.5,0,0],[0.75,0,0],[1,0,0],[0,1,0],[0.25,1,0],[0.5,1,0],[0.75,1,0],[1,1,0],[0,0.25,0],[0,0.5,0],[0,0.75,0],[1,0.25,0],[1,0.5,0],[1,0.75,0]];outlineConnect=0;fontColor=#030303;gradientColor=#F78E04;gradientDirection=north;fillColor=#D05C17;strokeColor=#ffffff;dashed=0;verticalLabelPosition=bottom;verticalAlign=top;align=center;html=1;fontSize=12;fontStyle=0;aspect=fixed;shape=mxgraph.aws4.resourceIcon;resIcon=mxgraph.aws4.lambda;labelBackgroundColor=none;" parent="1" vertex="1">
                    <mxGeometry x="311" y="-348" width="78" height="78" as="geometry"/>
                </mxCell>
                <mxCell id="12" value="Hauling Function" style="sketch=0;points=[[0,0,0],[0.25,0,0],[0.5,0,0],[0.75,0,0],[1,0,0],[0,1,0],[0.25,1,0],[0.5,1,0],[0.75,1,0],[1,1,0],[0,0.25,0],[0,0.5,0],[0,0.75,0],[1,0.25,0],[1,0.5,0],[1,0.75,0]];outlineConnect=0;fontColor=#030303;gradientColor=#F78E04;gradientDirection=north;fillColor=#D05C17;strokeColor=#ffffff;dashed=0;verticalLabelPosition=bottom;verticalAlign=top;align=center;html=1;fontSize=12;fontStyle=0;aspect=fixed;shape=mxgraph.aws4.resourceIcon;resIcon=mxgraph.aws4.lambda;labelBackgroundColor=none;" parent="1" vertex="1">
                    <mxGeometry x="461" y="-348" width="78" height="78" as="geometry"/>
                </mxCell>
                <mxCell id="13" value="Station Trading Function" style="sketch=0;points=[[0,0,0],[0.25,0,0],[0.5,0,0],[0.75,0,0],[1,0,0],[0,1,0],[0.25,1,0],[0.5,1,0],[0.75,1,0],[1,1,0],[0,0.25,0],[0,0.5,0],[0,0.75,0],[1,0.25,0],[1,0.5,0],[1,0.75,0]];outlineConnect=0;fontColor=#030303;gradientColor=#F78E04;gradientDirection=north;fillColor=#D05C17;strokeColor=#ffffff;dashed=0;verticalLabelPosition=bottom;verticalAlign=top;align=center;html=1;fontSize=12;fontStyle=0;aspect=fixed;shape=mxgraph.aws4.resourceIcon;resIcon=mxgraph.aws4.lambda;labelBackgroundColor=none;" parent="1" vertex="1">
                    <mxGeometry x="615" y="-348" width="78" height="78" as="geometry"/>
                </mxCell>
                <mxCell id="15" value="AWS Lambda Serverless Functions&lt;br&gt;Connected via Lambda Invocation URLs" style="text;html=1;resizable=0;autosize=1;align=center;verticalAlign=middle;points=[];fillColor=none;strokeColor=none;rounded=0;labelBackgroundColor=none;fontColor=#FFFFFF;" parent="1" vertex="1">
                    <mxGeometry x="5" y="-324" width="230" height="30" as="geometry"/>
                </mxCell>
                <mxCell id="23" style="edgeStyle=none;html=1;entryX=0;entryY=0.75;entryDx=0;entryDy=0;fontColor=#FFFFFF;labelBackgroundColor=none;" parent="1" source="16" target="10" edge="1">
                    <mxGeometry relative="1" as="geometry">
                        <Array as="points">
                            <mxPoint x="120" y="-256"/>
                        </Array>
                    </mxGeometry>
                </mxCell>
                <mxCell id="16" value="Trade Finder Discord Bot (GCP)" style="sketch=0;points=[[0.015,0.015,0],[0.985,0.015,0],[0.985,0.985,0],[0.015,0.985,0],[0.25,0,0],[0.5,0,0],[0.75,0,0],[1,0.25,0],[1,0.5,0],[1,0.75,0],[0.75,1,0],[0.5,1,0],[0.25,1,0],[0,0.75,0],[0,0.5,0],[0,0.25,0]];verticalLabelPosition=bottom;html=1;verticalAlign=top;aspect=fixed;align=center;pointerEvents=1;shape=mxgraph.cisco19.server;fillColor=#f5f5f5;strokeColor=#666666;fontColor=#FFFFFF;labelBackgroundColor=none;" parent="1" vertex="1">
                    <mxGeometry x="85" y="-56.629999999999995" width="70" height="127.27" as="geometry"/>
                </mxCell>
                <mxCell id="17" value="" style="group;labelBackgroundColor=none;" parent="1" vertex="1" connectable="0">
                    <mxGeometry x="330" y="-83" width="330" height="215" as="geometry"/>
                </mxCell>
                <mxCell id="3" value="" style="strokeWidth=1;shadow=0;dashed=0;align=center;html=1;shape=mxgraph.mockup.containers.browserWindow;rSize=0;strokeColor=#666666;strokeColor2=#008cff;strokeColor3=#c4c4c4;mainText=,;recursiveResize=0;fillColor=#f5f5f5;fontColor=#333333;labelBackgroundColor=none;" parent="17" vertex="1">
                    <mxGeometry width="330" height="180" as="geometry"/>
                </mxCell>
                <mxCell id="4" value="Page 1" style="strokeWidth=1;shadow=0;dashed=0;align=center;html=1;shape=mxgraph.mockup.containers.anchor;fontSize=17;fontColor=#666666;align=left;labelBackgroundColor=none;" parent="3" vertex="1">
                    <mxGeometry x="60" y="12" width="110" height="26" as="geometry"/>
                </mxCell>
                <mxCell id="5" value="https://evetrade.space" style="strokeWidth=1;shadow=0;dashed=0;align=center;html=1;shape=mxgraph.mockup.containers.anchor;rSize=0;fontSize=17;fontColor=#666666;align=left;labelBackgroundColor=none;" parent="3" vertex="1">
                    <mxGeometry x="130" y="60" width="250" height="26" as="geometry"/>
                </mxCell>
                <mxCell id="7" value="EVETrade UI Application hosted on Netlify CMS" style="text;html=1;resizable=0;autosize=1;align=center;verticalAlign=middle;points=[];fillColor=none;strokeColor=none;rounded=0;labelBackgroundColor=none;" parent="17" vertex="1">
                    <mxGeometry x="30" y="195" width="270" height="20" as="geometry"/>
                </mxCell>
                <mxCell id="22" style="edgeStyle=none;html=1;entryX=0.5;entryY=1;entryDx=0;entryDy=0;labelBackgroundColor=none;fontColor=#FFFFFF;" parent="1" source="3" target="10" edge="1">
                    <mxGeometry relative="1" as="geometry"/>
                </mxCell>
                <mxCell id="26" value="Historic Volume Data is pulled &lt;br&gt;for station trading" style="edgeStyle=none;html=1;entryX=0.5;entryY=0;entryDx=0;entryDy=0;fontColor=#FFFFFF;labelBackgroundColor=none;" parent="1" source="25" target="10" edge="1">
                    <mxGeometry relative="1" as="geometry"/>
                </mxCell>
                <mxCell id="25" value="Redis Cache" style="sketch=0;outlineConnect=0;fontColor=#FFFFFF;gradientColor=none;fillColor=#2E27AD;strokeColor=none;dashed=0;verticalLabelPosition=middle;verticalAlign=middle;align=right;html=1;fontSize=12;fontStyle=0;aspect=fixed;pointerEvents=1;shape=mxgraph.aws4.elasticache_for_redis;labelBackgroundColor=none;labelPosition=left;" parent="1" vertex="1">
                    <mxGeometry x="456" y="-576" width="78" height="69" as="geometry"/>
                </mxCell>
                <mxCell id="33" value="Static Data Export Files (JSON)&lt;br style=&quot;font-size: 11px;&quot;&gt;Used for common universe data" style="edgeStyle=none;html=1;entryX=0.75;entryY=0;entryDx=0;entryDy=0;fontColor=#FFFFFF;labelBackgroundColor=none;strokeColor=#FFFFFF;strokeWidth=2;fontStyle=0;spacing=3;fontSize=11;" parent="1" source="27" target="10" edge="1">
                    <mxGeometry relative="1" as="geometry"/>
                </mxCell>
                <mxCell id="27" value="S3 Bucket" style="sketch=0;points=[[0,0,0],[0.25,0,0],[0.5,0,0],[0.75,0,0],[1,0,0],[0,1,0],[0.25,1,0],[0.5,1,0],[0.75,1,0],[1,1,0],[0,0.25,0],[0,0.5,0],[0,0.75,0],[1,0.25,0],[1,0.5,0],[1,0.75,0]];outlineConnect=0;fontColor=#FFFFFF;gradientColor=#60A337;gradientDirection=north;fillColor=#277116;strokeColor=#ffffff;dashed=0;verticalLabelPosition=middle;verticalAlign=middle;align=right;html=1;fontSize=12;fontStyle=0;aspect=fixed;shape=mxgraph.aws4.resourceIcon;resIcon=mxgraph.aws4.s3;labelBackgroundColor=none;labelPosition=left;" parent="1" vertex="1">
                    <mxGeometry x="727" y="-580.5" width="78" height="78" as="geometry"/>
                </mxCell>
                <mxCell id="30" value="Marked and Jump Data &lt;br&gt;pulled for analysis" style="edgeStyle=none;html=1;entryX=0.25;entryY=0;entryDx=0;entryDy=0;fontColor=#FFFFFF;labelBackgroundColor=none;" parent="1" source="29" target="10" edge="1">
                    <mxGeometry relative="1" as="geometry"/>
                </mxCell>
                <mxCell id="29" value="Elasticsearch 7.10" style="sketch=0;points=[[0,0,0],[0.25,0,0],[0.5,0,0],[0.75,0,0],[1,0,0],[0,1,0],[0.25,1,0],[0.5,1,0],[0.75,1,0],[1,1,0],[0,0.25,0],[0,0.5,0],[0,0.75,0],[1,0.25,0],[1,0.5,0],[1,0.75,0]];outlineConnect=0;fontColor=#FFFFFF;gradientColor=#945DF2;gradientDirection=north;fillColor=#5A30B5;strokeColor=#ffffff;dashed=0;verticalLabelPosition=middle;verticalAlign=middle;align=right;html=1;fontSize=12;fontStyle=0;aspect=fixed;shape=mxgraph.aws4.resourceIcon;resIcon=mxgraph.aws4.elasticsearch_service;labelBackgroundColor=none;labelPosition=left;" parent="1" vertex="1">
                    <mxGeometry x="182" y="-580.5" width="78" height="78" as="geometry"/>
                </mxCell>
                <mxCell id="35" style="edgeStyle=none;html=1;entryX=0.5;entryY=0;entryDx=0;entryDy=0;entryPerimeter=0;fontColor=#FFFFFF;labelBackgroundColor=none;strokeColor=#FFFFFF;strokeWidth=2;fontStyle=0;spacing=3;fontSize=11;" parent="1" source="34" target="27" edge="1">
                    <mxGeometry relative="1" as="geometry"/>
                </mxCell>
                <mxCell id="34" value="SDE Sync Service" style="sketch=0;points=[[0,0,0],[0.25,0,0],[0.5,0,0],[0.75,0,0],[1,0,0],[0,1,0],[0.25,1,0],[0.5,1,0],[0.75,1,0],[1,1,0],[0,0.25,0],[0,0.5,0],[0,0.75,0],[1,0.25,0],[1,0.5,0],[1,0.75,0]];outlineConnect=0;fontColor=#FFFFFF;gradientColor=#F78E04;gradientDirection=north;fillColor=#D05C17;strokeColor=#ffffff;dashed=0;verticalLabelPosition=middle;verticalAlign=middle;align=left;html=1;fontSize=12;fontStyle=0;aspect=fixed;shape=mxgraph.aws4.resourceIcon;resIcon=mxgraph.aws4.lambda;labelBackgroundColor=none;labelPosition=right;" parent="1" vertex="1">
                    <mxGeometry x="727" y="-734" width="78" height="78" as="geometry"/>
                </mxCell>
                <mxCell id="37" style="edgeStyle=none;html=1;entryX=0;entryY=0.5;entryDx=0;entryDy=0;entryPerimeter=0;fontColor=#FFFFFF;labelBackgroundColor=none;strokeColor=#FFFFFF;strokeWidth=2;fontStyle=0;spacing=3;fontSize=11;" parent="1" source="36" target="34" edge="1">
                    <mxGeometry relative="1" as="geometry"/>
                </mxCell>
                <mxCell id="38" value="Ingest Historic Volumes&lt;br&gt;(Every few hours)" style="edgeStyle=none;html=1;fontColor=#FFFFFF;labelBackgroundColor=none;" parent="1" source="36" target="25" edge="1">
                    <mxGeometry relative="1" as="geometry"/>
                </mxCell>
                <mxCell id="39" style="edgeStyle=none;html=1;entryX=1;entryY=0.5;entryDx=0;entryDy=0;entryPerimeter=0;fontColor=#FFFFFF;labelBackgroundColor=none;" parent="1" source="36" target="29" edge="1">
                    <mxGeometry relative="1" as="geometry">
                        <Array as="points">
                            <mxPoint x="345" y="-695"/>
                            <mxPoint x="345" y="-541"/>
                        </Array>
                    </mxGeometry>
                </mxCell>
                <mxCell id="40" value="Ingest Route &lt;br&gt;Jump Data&lt;br&gt;(As Needed)" style="edgeLabel;html=1;align=center;verticalAlign=middle;resizable=0;points=[];fontColor=#FFFFFF;labelBackgroundColor=none;" parent="39" vertex="1" connectable="0">
                    <mxGeometry x="-0.0218" y="-1" relative="1" as="geometry">
                        <mxPoint as="offset"/>
                    </mxGeometry>
                </mxCell>
                <mxCell id="36" value="GitHub Action:&lt;br&gt;Resource Cache" style="sketch=0;html=1;dashed=0;whitespace=wrap;fillColor=#2875E2;strokeColor=#ffffff;points=[[0.005,0.63,0],[0.1,0.2,0],[0.9,0.2,0],[0.5,0,0],[0.995,0.63,0],[0.72,0.99,0],[0.5,1,0],[0.28,0.99,0]];shape=mxgraph.kubernetes.icon;prIcon=job;labelBackgroundColor=none;fontColor=#FFFFFF;labelPosition=right;verticalLabelPosition=top;align=left;verticalAlign=bottom;" parent="1" vertex="1">
                    <mxGeometry x="450.5" y="-739" width="89" height="88" as="geometry"/>
                </mxCell>
                <mxCell id="42" style="edgeStyle=none;html=1;entryX=0.5;entryY=0;entryDx=0;entryDy=0;entryPerimeter=0;fontColor=#FFFFFF;labelBackgroundColor=none;" parent="1" source="41" target="29" edge="1">
                    <mxGeometry relative="1" as="geometry"/>
                </mxCell>
                <mxCell id="41" value="Sync Service (Heroku)&lt;br&gt;Ingests Data Every Minute" style="outlineConnect=0;dashed=0;verticalLabelPosition=middle;verticalAlign=middle;align=right;html=1;shape=mxgraph.aws3.ec2;fillColor=#F58534;gradientColor=none;labelBackgroundColor=none;fontColor=#FFFFFF;labelPosition=left;" parent="1" vertex="1">
                    <mxGeometry x="182.75" y="-741.5" width="76.5" height="93" as="geometry"/>
                </mxCell>
                <mxCell id="44" value="&lt;font color=&quot;#ffffff&quot;&gt;EVE Developer Resources&lt;/font&gt;" style="rounded=0;whiteSpace=wrap;html=1;align=center;labelPosition=center;verticalLabelPosition=top;verticalAlign=bottom;labelBackgroundColor=none;" parent="1" vertex="1">
                    <mxGeometry x="245" y="-1064" width="500" height="170" as="geometry"/>
                </mxCell>
                <mxCell id="47" style="edgeStyle=none;html=1;entryX=0.5;entryY=0;entryDx=0;entryDy=0;entryPerimeter=0;fontColor=#030303;labelBackgroundColor=none;" parent="1" source="45" target="41" edge="1">
                    <mxGeometry relative="1" as="geometry">
                        <Array as="points">
                            <mxPoint x="221" y="-964"/>
                        </Array>
                    </mxGeometry>
                </mxCell>
                <mxCell id="45" value="EVE Swagger API" style="rounded=0;whiteSpace=wrap;html=1;labelBackgroundColor=none;" parent="1" vertex="1">
                    <mxGeometry x="290" y="-994" width="120" height="60" as="geometry"/>
                </mxCell>
                <mxCell id="50" style="edgeStyle=none;html=1;entryX=0.5;entryY=0;entryDx=0;entryDy=0;entryPerimeter=0;fontColor=#030303;labelBackgroundColor=none;" parent="1" source="48" target="36" edge="1">
                    <mxGeometry relative="1" as="geometry">
                        <Array as="points">
                            <mxPoint x="495" y="-964"/>
                        </Array>
                    </mxGeometry>
                </mxCell>
                <mxCell id="48" value="Static Data Export&lt;br&gt;(SDE)" style="rounded=0;whiteSpace=wrap;html=1;labelBackgroundColor=none;" parent="1" vertex="1">
                    <mxGeometry x="573" y="-994" width="120" height="60" as="geometry"/>
                </mxCell>
                <mxCell id="51" style="edgeStyle=none;html=1;entryX=0.5;entryY=0;entryDx=0;entryDy=0;entryPerimeter=0;fontColor=#FFFFFF;labelBackgroundColor=none;fillColor=#f5f5f5;strokeColor=#FFFFFF;strokeWidth=2;fontStyle=0;spacing=3;fontSize=11;" edge="1" parent="1">
                    <mxGeometry relative="1" as="geometry">
                        <Array as="points">
                            <mxPoint x="495" y="-964"/>
                        </Array>
                        <mxPoint x="573" y="-964" as="sourcePoint"/>
                        <mxPoint x="495" y="-739" as="targetPoint"/>
                    </mxGeometry>
                </mxCell>
                <mxCell id="52" style="edgeStyle=none;html=1;entryX=0.5;entryY=0;entryDx=0;entryDy=0;entryPerimeter=0;fontColor=#FFFFFF;labelBackgroundColor=none;strokeColor=#FFFFFF;strokeWidth=2;" edge="1" parent="1">
                    <mxGeometry relative="1" as="geometry">
                        <Array as="points">
                            <mxPoint x="221" y="-964"/>
                        </Array>
                        <mxPoint x="290" y="-964" as="sourcePoint"/>
                        <mxPoint x="221" y="-741.5" as="targetPoint"/>
                    </mxGeometry>
                </mxCell>
                <mxCell id="53" style="edgeStyle=none;html=1;entryX=1;entryY=0.5;entryDx=0;entryDy=0;entryPerimeter=0;fontColor=#FFFFFF;labelBackgroundColor=none;strokeColor=#FFFFFF;strokeWidth=2;" edge="1" parent="1">
                    <mxGeometry relative="1" as="geometry">
                        <Array as="points">
                            <mxPoint x="345" y="-695"/>
                            <mxPoint x="345" y="-541"/>
                        </Array>
                        <mxPoint x="450.5" y="-695" as="sourcePoint"/>
                        <mxPoint x="260" y="-541.5" as="targetPoint"/>
                    </mxGeometry>
                </mxCell>
                <mxCell id="54" value="Ingest Route &lt;br&gt;Jump Data&lt;br&gt;(As Needed)" style="edgeLabel;html=1;align=center;verticalAlign=middle;resizable=0;points=[];fontColor=#FFFFFF;labelBackgroundColor=none;" vertex="1" connectable="0" parent="53">
                    <mxGeometry x="-0.0218" y="-1" relative="1" as="geometry">
                        <mxPoint as="offset"/>
                    </mxGeometry>
                </mxCell>
                <mxCell id="55" style="edgeStyle=none;html=1;entryX=0.5;entryY=0;entryDx=0;entryDy=0;entryPerimeter=0;fontColor=#FFFFFF;labelBackgroundColor=none;strokeColor=#FFFFFF;strokeWidth=2;fontStyle=0;spacing=3;fontSize=11;" edge="1" parent="1">
                    <mxGeometry relative="1" as="geometry">
                        <mxPoint x="221" y="-648.5" as="sourcePoint"/>
                        <mxPoint x="221" y="-580.5" as="targetPoint"/>
                    </mxGeometry>
                </mxCell>
                <mxCell id="56" value="Ingest Historic Volumes&lt;br style=&quot;font-size: 11px;&quot;&gt;(Every few hours)" style="edgeStyle=none;html=1;fontColor=#FFFFFF;labelBackgroundColor=none;strokeColor=#FFFFFF;strokeWidth=2;fontStyle=0;spacing=3;fontSize=11;" edge="1" parent="1">
                    <mxGeometry relative="1" as="geometry">
                        <mxPoint x="495" y="-651" as="sourcePoint"/>
                        <mxPoint x="495" y="-576" as="targetPoint"/>
                    </mxGeometry>
                </mxCell>
                <mxCell id="57" value="0" style="edgeStyle=none;html=1;labelBackgroundColor=none;strokeColor=#FFFFFF;strokeWidth=2;fontStyle=0;spacing=3;fontSize=11;" edge="1" parent="1">
                    <mxGeometry relative="1" as="geometry">
                        <mxPoint x="805" y="7" as="sourcePoint"/>
                        <mxPoint x="660" y="7" as="targetPoint"/>
                    </mxGeometry>
                </mxCell>
                <mxCell id="58" style="edgeStyle=none;html=1;entryX=0.5;entryY=1;entryDx=0;entryDy=0;labelBackgroundColor=none;fontColor=#FFFFFF;strokeColor=#FFFFFF;strokeWidth=2;fontStyle=0;spacing=3;fontSize=11;" edge="1" parent="1">
                    <mxGeometry relative="1" as="geometry">
                        <mxPoint x="495" y="-83" as="sourcePoint"/>
                        <mxPoint x="495" y="-214" as="targetPoint"/>
                    </mxGeometry>
                </mxCell>
                <mxCell id="59" style="edgeStyle=none;html=1;entryX=0;entryY=0.75;entryDx=0;entryDy=0;fontColor=#FFFFFF;labelBackgroundColor=none;strokeColor=#FFFFFF;strokeWidth=2;fontStyle=0;spacing=3;fontSize=11;" edge="1" parent="1">
                    <mxGeometry relative="1" as="geometry">
                        <Array as="points">
                            <mxPoint x="120" y="-256"/>
                        </Array>
                        <mxPoint x="120" y="-56.63000000000011" as="sourcePoint"/>
                        <mxPoint x="245" y="-256.5" as="targetPoint"/>
                    </mxGeometry>
                </mxCell>
                <mxCell id="60" value="Marked and Jump Data &lt;br style=&quot;font-size: 11px;&quot;&gt;pulled for analysis" style="edgeStyle=none;html=1;entryX=0.25;entryY=0;entryDx=0;entryDy=0;fontColor=#FFFFFF;labelBackgroundColor=none;strokeColor=#FFFFFF;strokeWidth=2;fontStyle=0;spacing=3;fontSize=11;" edge="1" parent="1">
                    <mxGeometry relative="1" as="geometry">
                        <mxPoint x="257.89523809523826" y="-502.5" as="sourcePoint"/>
                        <mxPoint x="370" y="-384" as="targetPoint"/>
                    </mxGeometry>
                </mxCell>
                <mxCell id="61" value="Historic Volume Data is pulled &lt;br style=&quot;font-size: 11px;&quot;&gt;for station trading" style="edgeStyle=none;html=1;entryX=0.5;entryY=0;entryDx=0;entryDy=0;fontColor=#FFFFFF;labelBackgroundColor=none;strokeColor=#FFFFFF;strokeWidth=2;fontStyle=0;spacing=3;fontSize=11;" edge="1" parent="1">
                    <mxGeometry relative="1" as="geometry">
                        <mxPoint x="495" y="-507" as="sourcePoint"/>
                        <mxPoint x="495" y="-384" as="targetPoint"/>
                    </mxGeometry>
                </mxCell>
                <mxCell id="62" style="edgeStyle=none;html=1;entryX=1;entryY=0.5;entryDx=0;entryDy=0;entryPerimeter=0;fontColor=#FFFFFF;labelBackgroundColor=none;strokeColor=#FFFFFF;strokeWidth=2;fontStyle=0;spacing=3;fontSize=11;" edge="1" parent="1">
                    <mxGeometry relative="1" as="geometry">
                        <Array as="points">
                            <mxPoint x="345" y="-695"/>
                            <mxPoint x="345" y="-541"/>
                        </Array>
                        <mxPoint x="450.5" y="-695" as="sourcePoint"/>
                        <mxPoint x="260" y="-541.5" as="targetPoint"/>
                    </mxGeometry>
                </mxCell>
                <mxCell id="63" value="Ingest Route &lt;br&gt;Jump Data&lt;br&gt;(As Needed)" style="edgeLabel;html=1;align=center;verticalAlign=middle;resizable=0;points=[];fontColor=#FFFFFF;labelBackgroundColor=none;" vertex="1" connectable="0" parent="62">
                    <mxGeometry x="-0.0218" y="-1" relative="1" as="geometry">
                        <mxPoint as="offset"/>
                    </mxGeometry>
                </mxCell>
                <mxCell id="64" style="edgeStyle=none;html=1;entryX=0.5;entryY=0;entryDx=0;entryDy=0;entryPerimeter=0;fontColor=#FFFFFF;labelBackgroundColor=none;strokeColor=#FFFFFF;strokeWidth=2;fontStyle=0;spacing=3;fontSize=11;" edge="1" parent="1">
                    <mxGeometry relative="1" as="geometry">
                        <Array as="points">
                            <mxPoint x="221" y="-964"/>
                        </Array>
                        <mxPoint x="290" y="-964" as="sourcePoint"/>
                        <mxPoint x="221" y="-741.5" as="targetPoint"/>
                    </mxGeometry>
                </mxCell>
            </root>
        </mxGraphModel>
    </diagram>
</mxfile>